<mxfile host="app.diagrams.net" agent="Mozilla/5.0 (Windows NT 10.0; Win64; x64) AppleWebKit/537.36 (KHTML, like Gecko) Chrome/135.0.0.0 Safari/537.36" version="26.2.12">
  <diagram name="Halaman-1" id="xytmZEimMQMlr2NkDLAa">
    <mxGraphModel dx="948" dy="597" grid="1" gridSize="10" guides="1" tooltips="1" connect="1" arrows="1" fold="1" page="1" pageScale="1" pageWidth="1654" pageHeight="1169" math="0" shadow="0">
      <root>
        <mxCell id="0" />
        <mxCell id="1" parent="0" />
        <mxCell id="b8dQ8xodJWn6N0JtI7fg-5" style="edgeStyle=orthogonalEdgeStyle;rounded=0;orthogonalLoop=1;jettySize=auto;html=1;entryX=0.5;entryY=0;entryDx=0;entryDy=0;" edge="1" parent="1" source="b8dQ8xodJWn6N0JtI7fg-1" target="b8dQ8xodJWn6N0JtI7fg-4">
          <mxGeometry relative="1" as="geometry" />
        </mxCell>
        <mxCell id="b8dQ8xodJWn6N0JtI7fg-6" style="edgeStyle=orthogonalEdgeStyle;rounded=0;orthogonalLoop=1;jettySize=auto;html=1;entryX=0.5;entryY=0;entryDx=0;entryDy=0;" edge="1" parent="1" source="b8dQ8xodJWn6N0JtI7fg-1" target="b8dQ8xodJWn6N0JtI7fg-3">
          <mxGeometry relative="1" as="geometry" />
        </mxCell>
        <mxCell id="b8dQ8xodJWn6N0JtI7fg-1" value="Mulai" style="rounded=1;whiteSpace=wrap;html=1;fillColor=light-dark(#FFFFFF,#F9F9F9);fontColor=light-dark(#000000,#050505);" vertex="1" parent="1">
          <mxGeometry x="320" y="40" width="120" height="60" as="geometry" />
        </mxCell>
        <mxCell id="b8dQ8xodJWn6N0JtI7fg-3" value="set username = null" style="rounded=0;whiteSpace=wrap;html=1;fillColor=light-dark(#FFFFFF,#FFFFFF);fontColor=light-dark(#000000,#000000);" vertex="1" parent="1">
          <mxGeometry x="200" y="160" width="120" height="60" as="geometry" />
        </mxCell>
        <mxCell id="b8dQ8xodJWn6N0JtI7fg-4" value="set password = null" style="rounded=0;whiteSpace=wrap;html=1;fillColor=light-dark(#FFFFFF,#FFFFFF);fontColor=light-dark(#000000,#000000);" vertex="1" parent="1">
          <mxGeometry x="440" y="160" width="120" height="60" as="geometry" />
        </mxCell>
      </root>
    </mxGraphModel>
  </diagram>
</mxfile>
